<svg id="Layer_1" data-name="Layer 1" xmlns="http://www.w3.org/2000/svg" viewBox="0 0 32 32">
  <defs>
    <style>
      .cls-1 {
        fill: none;
      }
    </style>
  </defs>
  <title>home_icon</title>
  <path d="M25.33,31.12H11a.49.49,0,0,1,0-1H24.85V16.88a.49.49,0,0,1,.48-.48h5L16,2.05,1.65,16.4h5a.49.49,0,0,1,.48.48V30.63a.49.49,0,1,1-1,0V17.37H.48a.48.48,0,0,1-.44-.3.48.48,0,0,1,.1-.53L15.66,1a.5.5,0,0,1,.68,0L31.86,16.54a.49.49,0,0,1-.34.83h-5.7V30.63A.49.49,0,0,1,25.33,31.12Z"/>
  <rect class="cls-1" width="32" height="32"/>
</svg>
