<?xml version="1.0" encoding="UTF-8"?>
<!DOCTYPE svg PUBLIC "-//W3C//DTD SVG 1.1//EN" "http://www.w3.org/Graphics/SVG/1.1/DTD/svg11.dtd">
<!-- Creator: CorelDRAW Home & Student X7 -->
<svg xmlns="http://www.w3.org/2000/svg" xml:space="preserve" width="55mm" height="17.5mm" version="1.1" style="shape-rendering:geometricPrecision; text-rendering:geometricPrecision; image-rendering:optimizeQuality; fill-rule:evenodd; clip-rule:evenodd"
viewBox="0 0 5500 1750"
 xmlns:xlink="http://www.w3.org/1999/xlink">
 <defs>
  <style type="text/css">
   <![CDATA[
    .fil3 {fill:white;fill-rule:nonzero}
    .fil1 {fill:#007784;fill-rule:nonzero}
    .fil4 {fill:#D9DADA;fill-rule:nonzero}
    .fil0 {fill:#D9DADA;fill-rule:nonzero}
    .fil2 {fill:white;fill-rule:nonzero}
   ]]>
  </style>
 </defs>
 <g id="Vrstva_x0020_1">
  <metadata id="CorelCorpID_0Corel-Layer"/>
  <g id="_553564960">
   <polygon class="fil0" points="2241,1555 2241,1728 1342,1023 1563,1023 "/>
   <polygon class="fil0" points="2783,1555 2783,1728 1883,1023 2104,1023 "/>
   <polygon class="fil0" points="3324,1555 3324,1728 2425,1023 2645,1023 "/>
   <polygon class="fil0" points="3865,1555 3865,1728 2966,1023 3187,1023 "/>
   <polygon class="fil1" points="3971,1213 3971,1386 3072,681 3292,681 "/>
   <polygon class="fil1" points="4407,1555 4407,1728 3507,1023 3728,1023 "/>
   <polygon class="fil0" points="4948,1555 4948,1728 4049,1023 4269,1023 "/>
   <polygon class="fil0" points="5489,1728 4590,1023 4811,1023 5489,1555 "/>
   <polygon class="fil1" points="46,433 578,850 5489,850 5489,433 "/>
   <path class="fil2" d="M2934 613l19 0c15,0 25,-6 25,-28 0,-21 -9,-25 -28,-25l-16 0 0 53zm-34 104l0 -184 70 0c33,0 43,27 43,53 0,15 -4,33 -17,43 -11,9 -26,11 -39,11l-23 0 0 77 -34 0z"/>
   <path class="fil2" d="M3075 603l0 0c4,-10 8,-15 13,-19 9,-8 15,-7 20,-7l0 37c-18,-1 -32,3 -32,23l0 80 -32 0 0 -138 31 0 0 24zm20 -41l-31 0 -28 -36 28 0 16 20 15 -20 28 0 -28 36z"/>
   <path class="fil2" d="M3164 527l38 0 -36 36 -25 0 23 -36zm-25 52l32 0 0 138 -32 0 0 -138z"/>
   <path class="fil2" d="M3244 603l1 0c3,-10 7,-15 12,-19 9,-8 15,-7 20,-7l0 37c-18,-1 -31,3 -32,23l0 80 -32 0 0 -138 31 0 0 24z"/>
   <path class="fil2" d="M3335 672c0,17 1,24 17,24 15,0 16,-7 16,-24l0 -46c0,-13 0,-26 -16,-26 -17,0 -17,13 -17,26l0 46zm-32 -19c0,-47 1,-78 49,-78 47,0 47,31 48,78 0,48 -7,69 -48,68 -42,1 -49,-20 -49,-68z"/>
   <path class="fil2" d="M3497 630c0,-11 0,-30 -15,-30 -15,0 -14,13 -15,27l0 46c1,13 5,23 14,23 11,0 16,-8 16,-24l0 -42zm0 72l-1 0c-6,14 -15,18 -27,19 -27,0 -33,-25 -33,-47l0 -50c0,-38 12,-48 33,-49 13,0 22,5 28,18l1 0c-1,-4 -1,-8 -1,-12l0 -48 32 0 0 184 -32 0 0 -15z"/>
   <path class="fil2" d="M3600 672c0,17 1,24 17,24 14,0 16,-7 16,-24l0 -46c0,-13 0,-26 -16,-26 -17,0 -17,13 -17,26l0 46zm-32 -19c0,-47 1,-78 49,-78 47,0 47,31 47,78 1,48 -6,69 -47,68 -42,1 -49,-20 -49,-68z"/>
   <path class="fil2" d="M3690 579l34 0 13 77c3,13 4,35 5,41l0 0c1,-6 2,-28 5,-41l13 -77 34 0 -32 138 -40 0 -32 -138z"/>
   <path class="fil2" d="M3882 630l0 -12c0,-14 -3,-18 -16,-18 -16,0 -15,12 -15,25l0 5 31 0zm1 -68l-31 0 -27 -36 27 0 16 20 15 -20 28 0 -28 36zm-64 65c-2,-33 15,-52 46,-52 45,0 49,23 49,61l0 19 -63 0 0 20c0,18 7,21 16,21 12,0 15,-8 15,-26l32 0c1,31 -12,51 -44,51 -37,0 -52,-18 -51,-58l0 -36z"/>
   <path class="fil2" d="M4012 630c1,-11 0,-30 -15,-30 -15,0 -13,13 -14,27l0 46c1,13 4,23 14,23 10,0 15,-8 15,-24l0 -42zm0 72l0 0c-6,14 -15,18 -28,19 -26,0 -32,-25 -33,-47l0 -50c1,-38 13,-48 33,-49 14,0 23,5 29,18l0 0c0,-4 -1,-8 -1,-12l0 -48 32 0 0 184 -32 0 0 -15z"/>
   <path class="fil2" d="M4147 630l0 -12c0,-14 -4,-18 -16,-18 -16,0 -16,12 -16,25l0 5 32 0zm-63 -3c-2,-33 15,-52 46,-52 44,0 49,23 49,61l0 19 -64 0 0 20c1,18 7,21 17,21 12,0 15,-8 15,-26l32 0c1,31 -12,51 -45,51 -36,0 -51,-18 -50,-58l0 -36z"/>
   <path class="fil2" d="M4270 627l0 -15c-1,-8 -4,-12 -11,-12 -13,0 -13,14 -12,31l0 32c-1,27 2,32 12,33 10,0 10,-9 11,-20l0 -13 32 0 0 13c0,29 -12,45 -44,45 -28,0 -44,-15 -43,-52l0 -45c0,-38 19,-49 43,-49 32,0 44,20 44,41l0 11 -32 0z"/>
   <path class="fil2" d="M4333 717l0 -184 32 0 0 83c0,6 0,12 0,18l0 0 30 -55 35 0 -35 56 34 82 -35 0 -20 -56 -9 14 0 42 -32 0z"/>
   <path class="fil2" d="M4507 527l38 0 -36 36 -25 0 23 -36zm6 117c-7,6 -17,11 -25,18 -5,4 -6,11 -6,17 0,10 3,17 15,17 19,0 16,-23 16,-37l0 -15zm5 73c-2,-4 -3,-9 -2,-14l-1 0c-7,11 -17,18 -28,18 -25,0 -37,-13 -37,-42 0,-31 23,-39 48,-49 13,-6 18,-12 15,-23 -1,-6 -6,-7 -15,-7 -14,0 -16,7 -16,20l-31 0c0,-26 9,-45 49,-45 43,0 46,23 45,41l0 82c0,6 1,13 3,19l-30 0z"/>
   <path class="fil2" d="M4649 602l0 -23 12 0 0 -14c0,-25 10,-32 34,-32l12 0 0 26c-3,-1 -6,-2 -8,-2 -4,0 -6,3 -6,6l0 16 14 0 0 23 -14 0 0 115 -32 0 0 -115 -12 0z"/>
   <path class="fil2" d="M4795 644c-8,6 -18,11 -26,18 -5,4 -5,11 -5,17 0,10 3,17 15,17 18,0 15,-23 16,-37l0 -15zm4 73c-2,-4 -2,-9 -2,-14l0 0c-8,11 -17,18 -28,18 -26,0 -37,-13 -37,-42 0,-31 22,-39 47,-49 14,-6 18,-12 16,-23 -2,-6 -7,-7 -15,-7 -15,0 -17,7 -17,20l-30 0c-1,-26 8,-45 48,-45 43,0 46,23 46,41l0 82c0,6 1,13 2,19l-30 0z"/>
   <path class="fil2" d="M4866 717l0 -184 31 0 0 83c0,6 0,12 0,18l0 0 31 -55 34 0 -34 56 33 82 -35 0 -20 -56 -9 14 0 42 -31 0z"/>
   <path class="fil2" d="M5048 697l-1 0c-5,16 -14,24 -30,24 -25,0 -30,-13 -30,-36l0 -106 31 0 0 95c0,6 0,13 4,18 2,3 5,4 9,4 15,0 15,-17 15,-27l0 -90 32 0 0 138 -30 0 0 -20z"/>
   <polygon class="fil2" points="5123,533 5155,533 5155,717 5123,717 "/>
   <path class="fil2" d="M5244 718c-18,2 -45,4 -45,-22l0 -94 -13 0 0 -23 13 0 0 -38 32 0 0 38 13 0 0 23 -13 0 0 86c1,6 10,5 13,5l0 25z"/>
   <path class="fil2" d="M5334 644c-8,6 -17,11 -26,18 -4,4 -5,11 -5,17 0,10 3,17 15,17 19,0 15,-23 16,-37l0 -15zm4 73c-2,-4 -2,-9 -2,-14l0 0c-8,11 -17,18 -28,18 -26,0 -37,-13 -37,-42 0,-31 22,-39 47,-49 14,-6 19,-12 16,-23 -2,-6 -6,-7 -15,-7 -15,0 -17,7 -17,20l-30 0c0,-26 8,-45 48,-45 44,0 46,23 46,41l0 82c0,6 1,13 2,19l-30 0z"/>
   <path class="fil3" d="M107 74l37 0 0 140c0,45 -14,66 -63,66 -50,0 -64,-21 -64,-66l0 -140 37 0 0 137c0,19 2,39 27,39 25,0 26,-20 26,-39l0 -137z"/>
   <path class="fil3" d="M279 74l38 0 0 201 -39 0 -29 -71c-10,-24 -18,-49 -27,-80l-1 0c2,16 3,37 4,57 1,20 2,40 2,56l0 38 -37 0 0 -201 38 0 30 73c9,24 17,47 26,80l1 0c-1,-18 -3,-38 -4,-57 -1,-19 -2,-38 -2,-56l0 -40z"/>
   <polygon class="fil3" points="363,74 400,74 400,275 363,275 "/>
   <path class="fil3" d="M531 74l40 0 -43 201 -50 0 -44 -201 40 0 23 129c2,11 4,23 5,34 0,6 1,11 1,17l1 0c0,-6 1,-11 1,-17 2,-11 3,-23 5,-34l21 -129z"/>
   <polygon class="fil3" points="603,275 603,74 708,74 708,104 640,104 640,154 703,154 703,184 640,184 640,245 708,245 708,275 "/>
   <path class="fil3" d="M784 159l29 0c13,-1 22,-9 22,-29 0,-22 -9,-26 -23,-26l-28 0 0 55zm0 30l0 86 -37 0 0 -201 70 0c33,0 57,12 57,49 0,21 -5,44 -30,48l0 0c22,3 29,18 29,37 0,8 -2,57 8,63l0 4 -42 0c-4,-13 -3,-38 -4,-51 0,-12 0,-29 -12,-33 -11,-3 -22,-2 -32,-2l-7 0z"/>
   <path class="fil3" d="M910 245l65 -124c3,-6 6,-12 10,-18 -4,1 -9,1 -14,1l-56 0 0 -30 109 0 0 30 -64 125c-3,6 -6,12 -10,17 4,-1 9,-1 14,-1l63 0 0 30 -117 0 0 -30z"/>
   <polygon class="fil3" points="1063,74 1101,74 1101,275 1063,275 "/>
   <polygon class="fil3" points="1133,74 1258,74 1258,104 1214,104 1214,275 1177,275 1177,104 1133,104 "/>
   <path class="fil3" d="M1315 195l32 0 -10 -57c-2,-10 -3,-19 -4,-28 0,-5 -1,-9 -1,-13l-1 0c0,4 -1,8 -1,13 -1,9 -2,18 -4,28l-11 57zm-56 80l48 -201 51 0 45 201 -40 0 -10 -51 -44 0 -10 51 -40 0z"/>
   <path class="fil3" d="M1530 211l0 25c1,7 3,14 13,14 13,0 13,-11 13,-22l0 -154 38 0 0 147c0,13 1,33 -11,46 -11,11 -28,13 -46,13 -13,0 -28,-5 -39,-21 -4,-7 -6,-29 -5,-48l37 0z"/>
   <polygon class="fil3" points="1646,240 1681,240 1681,275 1646,275 "/>
   <polygon class="fil3" points="1773,275 1773,74 1879,74 1879,104 1811,104 1811,154 1873,154 1873,184 1811,184 1811,245 1879,245 1879,275 "/>
   <polygon class="fil3" points="1926,240 1961,240 1961,275 1926,275 "/>
   <path class="fil3" d="M2092 162l20 0c16,0 27,-7 27,-32 0,-23 -9,-26 -30,-26l-17 0 0 58zm-37 113l0 -201 76 0c36,0 47,29 47,57 0,17 -5,37 -19,48 -12,9 -28,12 -42,12l-25 0 0 84 -37 0z"/>
   <path class="fil3" d="M2302 74l38 0 0 140c0,45 -15,66 -64,66 -49,0 -63,-21 -63,-66l0 -140 37 0 0 137c0,19 1,39 27,39 24,0 25,-20 25,-39l0 -137z"/>
   <path class="fil3" d="M2422 159l30 0c12,-1 21,-9 21,-29 0,-22 -9,-26 -23,-26l-28 0 0 55zm0 30l0 86 -37 0 0 -201 71 0c32,0 56,12 56,49 0,21 -5,44 -30,48l0 0c22,3 29,18 29,37 0,8 -1,57 8,63l0 4 -42 0c-4,-13 -3,-38 -4,-51 0,-12 0,-29 -12,-33 -11,-3 -22,-2 -32,-2l-7 0z"/>
   <path class="fil3" d="M2558 275l0 -201 37 0 0 89 1 0c6,-15 15,-33 23,-48l22 -41 43 0 -50 86 52 115 -42 0 -36 -79 -13 21 0 58 -37 0z"/>
   <path class="fil3" d="M2763 127c4,10 7,20 9,31l0 0c3,-16 8,-27 13,-38l18 -46 40 0 -53 116 0 85 -37 0 0 -85 -52 -116 41 0 21 53z"/>
   <path class="fil3" d="M2963 74l38 0 0 201 -39 0 -29 -71c-10,-24 -18,-49 -27,-80l-1 0c2,16 3,37 4,57 2,20 2,40 2,56l0 38 -37 0 0 -201 39 0 29 73c9,24 17,47 27,80l0 0c-1,-18 -3,-38 -4,-57 -1,-19 -2,-38 -2,-56l0 -40z"/>
   <path class="fil3" d="M3119 63l-33 0 -31 -30 30 0 17 14 17 -14 31 0 -31 30zm-73 212l0 -201 105 0 0 30 -68 0 0 50 63 0 0 30 -63 0 0 61 68 0 0 30 -105 0z"/>
   <path class="fil3" d="M3351 74l40 0 -43 201 -50 0 -45 -201 40 0 24 129c2,11 3,23 4,34 1,6 2,11 2,17l1 0c0,-6 1,-11 1,-17 1,-11 3,-23 5,-34l21 -129z"/>
   <path class="fil3" d="M3572 33l42 0 -40 30 -27 0 25 -30zm18 41l37 0 0 140c0,45 -14,66 -63,66 -50,0 -64,-21 -64,-66l0 -140 37 0 0 137c0,19 2,39 27,39 25,0 26,-20 26,-39l0 -137z"/>
   <path class="fil3" d="M3749 135c0,-18 -1,-35 -22,-35 -12,0 -20,5 -20,19 0,15 9,21 21,28 12,8 35,23 46,33 12,13 16,25 16,42 0,38 -25,58 -61,58 -45,0 -61,-25 -61,-61l0 -15 37 0 0 12c-1,19 5,34 24,34 15,0 23,-9 23,-24 0,-12 -5,-20 -15,-26 -20,-16 -44,-27 -59,-47 -6,-9 -10,-20 -10,-30 0,-35 19,-53 59,-53 60,0 58,46 58,65l-36 0z"/>
   <polygon class="fil3" points="3817,74 3942,74 3942,104 3898,104 3898,275 3861,275 3861,104 3817,104 "/>
   <path class="fil3" d="M4003 33l41 0 -39 30 -27 0 25 -30zm-29 41l37 0 0 201 -37 0 0 -201z"/>
   <path class="fil3" d="M4223 74l38 0 0 201 -39 0 -30 -71c-9,-24 -17,-49 -26,-80l-1 0c2,16 3,37 4,57 1,20 2,40 2,56l0 38 -37 0 0 -201 38 0 30 73c9,24 17,47 26,80l1 0c-2,-18 -3,-38 -4,-57 -1,-19 -2,-38 -2,-56l0 -40z"/>
   <path class="fil3" d="M4346 195l33 0 -11 -57c-2,-10 -2,-19 -3,-28 -1,-5 -1,-9 -2,-13l0 0c-1,4 -1,8 -2,13 -1,9 -1,18 -3,28l-12 57zm-55 80l47 -201 51 0 45 201 -40 0 -10 -51 -43 0 -10 51 -40 0z"/>
   <path class="fil3" d="M4519 245c34,0 36,-17 36,-75 0,-47 -5,-66 -28,-66l-24 0 0 141 16 0zm-54 30l0 -201 79 0c9,0 27,4 38,23 9,14 11,36 11,69 0,40 0,86 -31,104 -8,4 -18,5 -27,5l-70 0z"/>
   <polygon class="fil3" points="4713,275 4713,74 4751,74 4751,245 4820,245 4820,275 "/>
   <path class="fil3" d="M4896 195l32 0 -10 -57c-2,-10 -2,-19 -3,-28 -1,-5 -1,-9 -2,-13l0 0c-1,4 -1,8 -2,13 -1,9 -1,18 -3,28l-12 57zm-56 80l48 -201 51 0 45 201 -40 0 -10 -51 -44 0 -9 51 -41 0z"/>
   <path class="fil3" d="M5059 245c8,0 16,1 22,-2 11,-4 12,-17 12,-27 0,-22 -4,-31 -28,-31l-14 0 0 60 8 0zm-1 -90c9,0 21,1 27,-7 3,-5 4,-12 4,-21 0,-15 -4,-23 -21,-23l-17 0 0 51 7 0zm-45 120l0 -201 61 0c16,0 32,2 42,15 9,11 10,23 10,36 0,18 -3,35 -24,42l0 1c21,3 29,20 29,46 0,9 0,17 -2,25 -8,25 -23,36 -49,36l-67 0z"/>
   <polygon class="fil3" points="5171,275 5171,74 5277,74 5277,104 5209,104 5209,154 5271,154 5271,184 5209,184 5209,245 5277,245 5277,275 "/>
   <path class="fil3" d="M5352 275l-37 0 0 -201 60 0 20 93c3,16 5,31 7,47l0 0c2,-20 3,-33 6,-47l20 -93 60 0 0 201 -38 0 0 -63c0,-40 1,-80 3,-120l0 0 -40 183 -23 0 -39 -183 -2 0c3,40 3,80 3,120l0 63z"/>
   <polygon class="fil4" points="1168,1138 1168,1138 1021,1023 801,1023 1700,1728 1700,1555 "/>
  </g>
 </g>
</svg>
